<svg xmlns="http://www.w3.org/2000/svg" viewBox="0 0 100 100"><path d="M17.05,79.64L83.63,79.64 83.63,19.41 17.05,19.41Z" fill="#ffffff"/><path d="M17.07,79.63L83.61,79.63 83.61,19.43 17.07,19.43ZM8.5,97.85C6.82,97.85 5.22,97.17 4.03,95.98 2.84,94.78 2.17,93.14 2.17,91.45L2.17,7.76C2.17,6.06 2.83,4.44 4.02,3.23 5.21,2.03 6.82,1.36 8.5,1.36L91.37,1.36C93.05,1.36 94.65,2.03 95.85,3.23 97.04,4.43 97.7,6.06 97.7,7.76L97.7,91.45C97.7,93.14 97.04,94.77 95.85,95.97 94.67,97.17 93.05,97.85 91.37,97.85ZM8.5,97.85" fill="#2056ae"/><path d="M17.05,79.64L83.63,79.64 83.63,19.41 17.05,19.41ZM8.48,97.87C6.8,97.88 5.19,97.2 4,96 2.81,94.8 2.14,93.17 2.14,91.47L2.14,7.73C2.13,6.03 2.81,4.41 3.99,3.21 5.18,2 6.8,1.33 8.48,1.33L91.39,1.33C93.08,1.33 94.68,2 95.88,3.2 97.06,4.4 97.73,6.03 97.74,7.73L97.74,91.47C97.74,93.17 97.07,94.79 95.88,95.99 94.69,97.2 93.08,97.87 91.39,97.87ZM8.48,97.87" fill="none" stroke="#263874" stroke-width=".29" stroke-linecap="butt" stroke-linejoin="bevel" stroke-miterlimit="10"/><path d="M8.5,96.24C7.24,96.24 6.04,95.73 5.15,94.84 4.26,93.94 3.76,92.72 3.76,91.45L3.76,7.76C3.76,6.48 4.26,5.27 5.15,4.37 6.04,3.47 7.24,2.96 8.5,2.96L91.37,2.96C92.63,2.96 93.83,3.47 94.72,4.37 95.61,5.27 96.11,6.48 96.12,7.76L96.12,91.45C96.12,92.72 95.61,93.93 94.72,94.83 93.84,95.73 92.63,96.24 91.37,96.24ZM8.5,94.63L91.37,94.63C92.21,94.63 93.01,94.29 93.6,93.69 94.19,93.1 94.52,92.29 94.52,91.45L94.52,7.76C94.52,6.91 94.19,6.1 93.6,5.51 93,4.91 92.21,4.57 91.37,4.57L8.5,4.57C7.67,4.57 6.87,4.91 6.27,5.51 5.68,6.1 5.35,6.91 5.35,7.76L5.35,91.45C5.35,92.29 5.69,93.1 6.27,93.69 6.87,94.29 7.67,94.63 8.5,94.63" fill="#ffffff"/><path d="M8.48,96.27C7.22,96.27 6.02,95.77 5.12,94.86 4.23,93.96 3.73,92.74 3.73,91.47L3.73,7.73C3.73,6.45 4.23,5.25 5.12,4.34 6.01,3.44 7.22,2.93 8.48,2.93L91.4,2.93C92.65,2.93 93.85,3.44 94.75,4.34 95.64,5.23 96.14,6.45 96.14,7.73L96.14,91.47C96.14,92.74 95.64,93.96 94.75,94.86 93.86,95.76 92.65,96.27 91.4,96.27ZM8.48,96.27 8.48,94.66L91.4,94.66C92.23,94.66 93.03,94.32 93.63,93.72 94.22,93.12 94.55,92.31 94.55,91.47L94.55,7.73C94.55,6.89 94.21,6.08 93.62,5.48 93.03,4.88 92.23,4.55 91.4,4.55L8.48,4.55C7.64,4.55 6.84,4.88 6.24,5.48 5.66,6.08 5.32,6.89 5.32,7.73L5.32,91.47C5.32,92.31 5.66,93.13 6.25,93.72 6.84,94.32 7.64,94.66 8.48,94.66ZM8.48,94.66" fill="none" stroke="#ffffff" stroke-width=".29" stroke-linecap="butt" stroke-linejoin="bevel" stroke-miterlimit="10"/></svg>