<svg xmlns="http://www.w3.org/2000/svg" viewBox="0 0 100 100"><path d="M16.87,79.64L83.44,79.64 83.44,19.41 16.87,19.41Z" fill="#ffffff"/><path d="M16.89,79.62L83.41,79.62 83.41,19.43 16.89,19.43ZM8.33,97.84C6.64,97.84 5.04,97.16 3.85,95.96 2.67,94.77 1.99,93.14 1.99,91.44L1.99,7.77C1.99,6.07 2.66,4.44 3.84,3.24 5.04,2.05 6.64,1.37 8.33,1.36L91.17,1.36C92.85,1.36 94.46,2.03 95.65,3.24 96.84,4.44 97.51,6.07 97.51,7.77L97.51,91.44C97.51,93.14 96.85,94.76 95.65,95.95 94.47,97.16 92.85,97.83 91.17,97.84ZM8.33,97.84" fill="#2056ae"/><path d="M16.87,79.64L83.44,79.64 83.44,19.41 16.87,19.41ZM8.3,97.87C6.62,97.87 5.01,97.2 3.82,96 2.63,94.8 1.96,93.17 1.96,91.47L1.96,7.74C1.96,6.04 2.62,4.41 3.81,3.21 5,2.01 6.62,1.33 8.3,1.33L91.21,1.33C92.89,1.33 94.49,2 95.69,3.2 96.87,4.41 97.54,6.04 97.55,7.74L97.55,91.47C97.55,93.17 96.88,94.79 95.69,95.99 94.5,97.2 92.89,97.87 91.21,97.87ZM8.3,97.87" fill="none" stroke="#263874" stroke-width=".29" stroke-linecap="butt" stroke-linejoin="bevel" stroke-miterlimit="10"/><path d="M8.33,96.23C7.07,96.23 5.87,95.72 4.98,94.82 4.09,93.93 3.59,92.71 3.59,91.44L3.59,7.77C3.59,6.49 4.09,5.28 4.97,4.38 5.87,3.48 7.07,2.98 8.33,2.98L91.17,2.98C92.43,2.97 93.63,3.48 94.52,4.38 95.42,5.27 95.91,6.49 95.92,7.77L95.92,91.44C95.92,92.71 95.42,93.93 94.53,94.82 93.64,95.72 92.43,96.23 91.17,96.23ZM8.33,94.62L91.17,94.62C92.01,94.62 92.81,94.29 93.4,93.69 94,93.09 94.33,92.29 94.33,91.44L94.33,7.77C94.33,6.92 93.99,6.11 93.4,5.51 92.81,4.92 92.01,4.58 91.17,4.58L8.33,4.58C7.49,4.58 6.69,4.92 6.1,5.51 5.51,6.11 5.18,6.92 5.18,7.77L5.18,91.44C5.18,92.29 5.51,93.1 6.1,93.69 6.69,94.29 7.49,94.62 8.33,94.62" fill="#ffffff"/><path d="M8.3,96.27C7.04,96.27 5.84,95.76 4.94,94.86 4.05,93.96 3.55,92.74 3.55,91.47L3.55,7.73C3.55,6.46 4.05,5.25 4.94,4.35 5.83,3.45 7.04,2.94 8.3,2.94L91.21,2.94C92.47,2.93 93.66,3.44 94.56,4.34 95.45,5.24 95.96,6.46 95.96,7.73L95.96,91.47C95.96,92.74 95.46,93.96 94.56,94.86 93.68,95.76 92.47,96.27 91.21,96.27ZM8.3,96.27 8.3,94.66L91.21,94.66C92.05,94.66 92.85,94.32 93.44,93.73 94.02,93.12 94.36,92.32 94.36,91.47L94.36,7.73C94.36,6.89 94.02,6.08 93.43,5.48 92.84,4.88 92.05,4.55 91.21,4.55L8.3,4.55C7.46,4.55 6.66,4.89 6.06,5.48 5.48,6.08 5.14,6.89 5.14,7.73L5.14,91.47C5.14,92.32 5.48,93.13 6.07,93.73 6.66,94.32 7.46,94.66 8.3,94.66ZM8.3,94.66" fill="none" stroke="#ffffff" stroke-width=".29" stroke-linecap="butt" stroke-linejoin="bevel" stroke-miterlimit="10"/></svg>