<svg xmlns="http://www.w3.org/2000/svg" viewBox="0 0 100 100"><path d="M49.95,1.85C75.71,1.85 96.58,23.2 96.58,49.53 96.58,75.86 75.71,97.21 49.95,97.21 24.2,97.21 3.32,75.86 3.32,49.53 3.32,23.2 24.2,1.85 49.95,1.85Z" fill="#ffffff"/><path d="M48.51,24.58C50.77,24.58 52.6,26.45 52.6,28.76 52.6,31.07 50.77,32.95 48.51,32.95 46.25,32.95 44.42,31.07 44.42,28.76 44.42,26.45 46.25,24.58 48.51,24.58" fill-rule="evenodd" fill="#231f20"/><path d="M46.13,45.43L41.04,50.69C38.93,52.88 34.77,49.87 37.39,46.89L47.26,35.63C49.29,33.31 52.36,31.94 53.41,32.91L64.21,43.93 64.21,49.86C64.21,52.35 59.45,52.29 59.45,49.79L59.45,46.02 56.9,44.23 56.57,44.32 55.56,47.35 63.65,70.57C65.01,74.49 59.3,76.29 58.1,72.98L51,53.46 41.74,73.03C40.08,76.53 34.25,73.82 36.22,69.78L46.93,47.7 46.46,45.4ZM46.13,45.43" fill-rule="evenodd" fill="#231f20"/><path d="M49.95,15.72C68.22,15.72 83.02,30.86 83.02,49.53 83.02,68.21 68.22,83.35 49.95,83.35 31.68,83.35 16.88,68.21 16.88,49.53 16.88,30.86 31.68,15.72 49.95,15.72M49.95,5.16C73.92,5.16 93.35,25.03 93.35,49.53 93.35,74.03 73.92,93.9 49.95,93.9 25.98,93.9 6.56,74.03 6.56,49.53 6.56,25.03 25.98,5.16 49.95,5.16" fill-rule="evenodd" fill="#ed1c24"/><path d="M49.95,1.85C75.71,1.85 96.58,23.2 96.58,49.53 96.58,75.86 75.71,97.21 49.95,97.21 24.2,97.21 3.32,75.86 3.32,49.53 3.32,23.2 24.2,1.85 49.95,1.85M49.95,3.46C74.84,3.46 95.01,24.08 95.01,49.53 95.01,74.98 74.84,95.6 49.95,95.6 25.07,95.6 4.89,74.98 4.89,49.53 4.89,24.08 25.07,3.46 49.95,3.46" fill-rule="evenodd" fill="#ed1c24"/></svg>